<svg id="icons" xmlns="http://www.w3.org/2000/svg" xmlns:xlink="http://www.w3.org/1999/xlink" width="100" height="100" viewBox="0 0 100 100">
  <defs>
    <clipPath id="clip-path">
      <rect id="長方形_48" data-name="長方形 48" width="100" height="100" fill="none" stroke="#c9ba99" stroke-width="1"/>
    </clipPath>
  </defs>
  <g id="マスクグループ_7" data-name="マスクグループ 7" clip-path="url(#clip-path)">
    <g id="グループ_37" data-name="グループ 37" transform="translate(-1129.699 -3361.938)">
      <path id="パス_49" data-name="パス 49" d="M963.87,80.027V44.375h60.608v41" transform="translate(196.22 3342.607)" fill="none" stroke="#c9ba99" stroke-linecap="round" stroke-linejoin="round" stroke-width="2"/>
      <path id="パス_50" data-name="パス 50" d="M963.87,24.418l3.565-16.043h53.478l3.565,16.043Z" transform="translate(196.22 3362.564)" fill="none" stroke="#c9ba99" stroke-linecap="round" stroke-linejoin="round" stroke-width="2"/>
      <path id="パス_51" data-name="パス 51" d="M1029.7,44.375V69.331l-8.913-10.7-8.913,10.7V44.375" transform="translate(169.611 3342.607)" fill="none" stroke="#c9ba99" stroke-linecap="round" stroke-linejoin="round" stroke-width="2"/>
      <path id="パス_52" data-name="パス 52" d="M939.87,139.94H947l10.7-3.565h14.261l7.13,1.783v8.913" transform="translate(209.524 3291.607)" fill="none" stroke="#c9ba99" stroke-linecap="round" stroke-linejoin="round" stroke-width="2"/>
      <path id="パス_53" data-name="パス 53" d="M939.87,166.635h14.261l21.391,3.565,35.652-12.478v-5.348h-3.565l-23.174,3.565H961.262" transform="translate(209.524 3282.737)" fill="none" stroke="#c9ba99" stroke-linecap="round" stroke-linejoin="round" stroke-width="2"/>
      <rect id="長方形_50" data-name="長方形 50" width="10.696" height="24.956" transform="translate(1138.699 3427.982)" fill="none" stroke="#c9ba99" stroke-linecap="round" stroke-linejoin="round" stroke-width="2"/>
    </g>
  </g>
</svg>
